<svg width="14" height="14" viewBox="0 0 14 14" fill="none" xmlns="http://www.w3.org/2000/svg">
<path d="M12.5 10.071V3.92904C12.8412 3.8416 13.1532 3.66544 13.4043 3.41843C13.6554 3.17143 13.8367 2.86237 13.9297 2.52266C14.0227 2.18294 14.0242 1.82465 13.934 1.48419C13.8437 1.14372 13.665 0.833186 13.4159 0.584127C13.1669 0.335067 12.8564 0.156349 12.5159 0.0661177C12.1754 -0.0241132 11.8171 -0.022643 11.4774 0.0703792C11.1377 0.163401 10.8286 0.344663 10.5816 0.595758C10.3346 0.846853 10.1585 1.15884 10.071 1.50004H3.92904C3.8416 1.15884 3.66544 0.846853 3.41843 0.595758C3.17143 0.344663 2.86237 0.163401 2.52266 0.0703792C2.18294 -0.022643 1.82465 -0.0241132 1.48419 0.0661177C1.14372 0.156349 0.833186 0.335067 0.584127 0.584127C0.335067 0.833186 0.156349 1.14372 0.0661177 1.48419C-0.0241132 1.82465 -0.022643 2.18294 0.0703792 2.52266C0.163401 2.86237 0.344663 3.17143 0.595758 3.41843C0.846853 3.66544 1.15884 3.8416 1.50004 3.92904V10.071C1.15884 10.1585 0.846853 10.3346 0.595758 10.5816C0.344663 10.8286 0.163401 11.1377 0.0703792 11.4774C-0.022643 11.8171 -0.0241132 12.1754 0.0661177 12.5159C0.156349 12.8564 0.335067 13.1669 0.584127 13.4159C0.833186 13.665 1.14372 13.8437 1.48419 13.934C1.82465 14.0242 2.18294 14.0227 2.52266 13.9297C2.86237 13.8367 3.17143 13.6554 3.41843 13.4043C3.66544 13.1532 3.8416 12.8412 3.92904 12.5H10.071C10.1585 12.8412 10.3346 13.1532 10.5816 13.4043C10.8286 13.6554 11.1377 13.8367 11.4774 13.9297C11.8171 14.0227 12.1754 14.0242 12.5159 13.934C12.8564 13.8437 13.1669 13.665 13.4159 13.4159C13.665 13.1669 13.8437 12.8564 13.934 12.5159C14.0242 12.1754 14.0227 11.8171 13.9297 11.4774C13.8367 11.1377 13.6554 10.8286 13.4043 10.5816C13.1532 10.3346 12.8412 10.1585 12.5 10.071ZM12 1.00004C12.1978 1.00004 12.3912 1.05869 12.5556 1.16857C12.7201 1.27845 12.8482 1.43463 12.9239 1.61735C12.9996 1.80008 13.0194 2.00115 12.9808 2.19513C12.9422 2.38911 12.847 2.56729 12.7071 2.70714C12.5673 2.847 12.3891 2.94224 12.1951 2.98082C12.0011 3.01941 11.8001 2.9996 11.6174 2.92392C11.4346 2.84823 11.2784 2.72006 11.1686 2.55561C11.0587 2.39116 11 2.19782 11 2.00004C11.0003 1.7349 11.1057 1.4807 11.2932 1.29322C11.4807 1.10574 11.7349 1.0003 12 1.00004ZM1.00004 2.00004C1.00004 1.80226 1.05869 1.60892 1.16857 1.44447C1.27845 1.28002 1.43463 1.15185 1.61735 1.07616C1.80008 1.00047 2.00115 0.980667 2.19513 1.01925C2.38911 1.05784 2.56729 1.15308 2.70714 1.29293C2.847 1.43278 2.94224 1.61097 2.98082 1.80495C3.01941 1.99893 2.9996 2.19999 2.92392 2.38272C2.84823 2.56545 2.72006 2.72163 2.55561 2.83151C2.39116 2.94139 2.19782 3.00004 2.00004 3.00004C1.7349 2.99977 1.4807 2.89433 1.29322 2.70685C1.10574 2.51937 1.0003 2.26517 1.00004 2.00004ZM2.00004 13C1.80226 13 1.60892 12.9414 1.44447 12.8315C1.28002 12.7216 1.15185 12.5654 1.07616 12.3827C1.00047 12.2 0.980667 11.9989 1.01925 11.8049C1.05784 11.611 1.15308 11.4328 1.29293 11.2929C1.43278 11.1531 1.61097 11.0578 1.80495 11.0193C1.99893 10.9807 2.19999 11.0005 2.38272 11.0762C2.56545 11.1518 2.72163 11.28 2.83151 11.4445C2.94139 11.6089 3.00004 11.8023 3.00004 12C2.99977 12.2652 2.89433 12.5194 2.70685 12.7069C2.51937 12.8943 2.26517 12.9998 2.00004 13ZM10.071 11.5H3.92904C3.83947 11.1563 3.65983 10.8426 3.40864 10.5914C3.15745 10.3402 2.8438 10.1606 2.50004 10.071V3.92904C2.84378 3.83943 3.1574 3.65977 3.40859 3.40859C3.65977 3.1574 3.83943 2.84378 3.92904 2.50004H10.071C10.1606 2.8438 10.3402 3.15745 10.5914 3.40864C10.8426 3.65983 11.1563 3.83947 11.5 3.92904V10.071C11.1563 10.1606 10.8426 10.3402 10.5914 10.5914C10.3402 10.8426 10.1606 11.1563 10.071 11.5ZM12 13C11.8023 13 11.6089 12.9414 11.4445 12.8315C11.28 12.7216 11.1518 12.5654 11.0762 12.3827C11.0005 12.2 10.9807 11.9989 11.0193 11.8049C11.0578 11.611 11.1531 11.4328 11.2929 11.2929C11.4328 11.1531 11.611 11.0578 11.8049 11.0193C11.9989 10.9807 12.2 11.0005 12.3827 11.0762C12.5654 11.1518 12.7216 11.28 12.8315 11.4445C12.9414 11.6089 13 11.8023 13 12C12.9996 12.2651 12.8942 12.5193 12.7067 12.7067C12.5193 12.8942 12.2651 12.9996 12 13Z" fill="#343A40"/>
</svg>
