<svg width="100" height="100" viewBox="0 0 100 100" fill="none" xmlns="http://www.w3.org/2000/svg">
<path d="M94 0H6C2.68629 0 0 2.68629 0 6V94C0 97.3137 2.68629 100 6 100H94C97.3137 100 100 97.3137 100 94V6C100 2.68629 97.3137 0 94 0Z" fill="white"/>
<path d="M29.5998 10.4999C30.2998 10.4999 30.8998 9.8999 30.8998 9.1999C30.8998 8.4999 30.2998 7.8999 29.5998 7.8999C28.8998 7.8999 28.2998 8.4999 28.2998 9.1999C28.2998 9.8999 28.8998 10.4999 29.5998 10.4999Z" fill="#343A40"/>
<path d="M44.8996 10.4999H46.1996H47.4996C48.1996 10.4999 48.7996 9.8999 48.7996 9.1999C48.7996 8.4999 48.1996 7.8999 47.4996 7.8999H46.1996H44.8996C44.1996 7.8999 43.5996 8.4999 43.5996 9.1999C43.5996 9.8999 44.1996 10.4999 44.8996 10.4999Z" fill="#343A40"/>
<path d="M52.4997 10.4999H53.7997H55.0997C55.7997 10.4999 56.3997 9.8999 56.3997 9.1999C56.3997 8.4999 55.7997 7.8999 55.0997 7.8999H53.7997H52.4997C51.7997 7.8999 51.1997 8.4999 51.1997 9.1999C51.1997 9.8999 51.7997 10.4999 52.4997 10.4999Z" fill="#343A40"/>
<path d="M60.1998 10.4999C60.8998 10.4999 61.4998 11.0999 61.4998 11.7999V12.9999V14.2999C61.4998 14.9999 62.0998 15.5999 62.7998 15.5999C63.4998 15.5999 63.9998 14.9999 63.9998 14.2999C63.9998 13.5999 64.5998 12.9999 65.2998 12.9999C65.9998 12.9999 66.5998 12.3999 66.5998 11.6999C66.5998 10.9999 65.9998 10.3999 65.2998 10.3999C64.5998 10.3999 63.9998 9.8999 63.9998 9.1999C63.9998 8.4999 63.3998 7.8999 62.6998 7.8999H61.3998H60.0998C59.3998 7.8999 58.7998 8.4999 58.7998 9.1999C58.7998 9.8999 59.4998 10.4999 60.1998 10.4999Z" fill="#343A40"/>
<path d="M70.3996 10.4999C71.0996 10.4999 71.6996 9.8999 71.6996 9.1999C71.6996 8.4999 71.0996 7.8999 70.3996 7.8999C69.6996 7.8999 69.0996 8.4999 69.0996 9.1999C69.0996 9.8999 69.6996 10.4999 70.3996 10.4999Z" fill="#343A40"/>
<path d="M32.0998 12.9999C32.7998 12.9999 33.3998 13.5999 33.3998 14.2999C33.3998 14.9999 33.9998 15.5999 34.6998 15.5999H35.9998H38.4998H39.7998C40.4998 15.5999 41.0998 14.9999 41.0998 14.2999C41.0998 13.5999 40.4998 12.9999 39.7998 12.9999C39.0998 12.9999 38.4998 12.3999 38.4998 11.6999C38.4998 10.9999 37.8998 10.3999 37.1998 10.3999C36.4998 10.3999 35.9998 9.8999 35.9998 9.1999C35.9998 8.4999 35.3998 7.8999 34.6998 7.8999C33.9998 7.8999 33.3998 8.4999 33.3998 9.1999C33.3998 9.8999 32.7998 10.4999 32.0998 10.4999C31.3998 10.4999 30.7998 11.0999 30.7998 11.7999C30.7998 12.4999 31.3998 12.9999 32.0998 12.9999Z" fill="#343A40"/>
<path d="M42.3 12.9999C43 12.9999 43.6 12.3999 43.6 11.6999C43.6 10.9999 43 10.3999 42.3 10.3999C41.6 10.3999 41 10.9999 41 11.6999C41 12.3999 41.6 12.9999 42.3 12.9999Z" fill="#343A40"/>
<path d="M48.6996 12.9999V14.2999C48.6996 14.9999 48.0996 15.5999 47.3996 15.5999C46.6996 15.5999 46.0996 14.9999 46.0996 14.2999C46.0996 13.5999 45.5996 12.9999 44.8996 12.9999C44.1996 12.9999 43.5996 13.5999 43.5996 14.2999V15.5999V18.1999V19.4999C43.5996 20.1999 44.1996 20.7999 44.8996 20.7999H46.1996H47.4996C48.1996 20.7999 48.7996 20.1999 48.7996 19.4999C48.7996 18.7999 49.3996 18.1999 50.0996 18.1999C50.7996 18.1999 51.3996 17.5999 51.3996 16.8999C51.3996 16.1999 51.9996 15.5999 52.6996 15.5999C53.3996 15.5999 53.9996 14.9999 53.9996 14.2999C53.9996 13.5999 53.1996 12.9999 52.4996 12.9999C51.7996 12.9999 51.1996 12.3999 51.1996 11.6999C51.1996 10.9999 50.5996 10.3999 49.8996 10.3999C49.1996 10.3999 48.5996 10.9999 48.5996 11.6999V12.9999H48.6996Z" fill="#343A40"/>
<path d="M57.5998 12.9999C58.2998 12.9999 58.8998 12.3999 58.8998 11.6999C58.8998 10.9999 58.2998 10.3999 57.5998 10.3999C56.8998 10.3999 56.2998 10.9999 56.2998 11.6999C56.2998 12.3999 56.8998 12.9999 57.5998 12.9999Z" fill="#343A40"/>
<path d="M29.5998 15.5C30.2998 15.5 30.8998 14.9 30.8998 14.2C30.8998 13.5 30.2998 13 29.5998 13C28.8998 13 28.2998 13.6 28.2998 14.3C28.2998 15 28.8998 15.5 29.5998 15.5Z" fill="#343A40"/>
<path d="M67.8 15.5C68.5 15.5 69.1 14.9 69.1 14.2C69.1 13.5 68.5 13 67.8 13C67.1 13 66.5 13.6 66.5 14.3C66.5 15 67.1 15.5 67.8 15.5Z" fill="#343A40"/>
<path d="M29.5998 20.7001C30.2998 20.7001 30.8998 20.1001 30.8998 19.4001C30.8998 18.7001 30.2998 18.1001 29.5998 18.1001C28.8998 18.1001 28.2998 18.7001 28.2998 19.4001C28.2998 20.1001 28.8998 20.7001 29.5998 20.7001Z" fill="#343A40"/>
<path d="M34.6999 18.1001C33.9999 18.1001 33.3999 18.7001 33.3999 19.4001C33.3999 20.1001 33.9999 20.7001 34.6999 20.7001C35.3999 20.7001 35.9999 20.1001 35.9999 19.4001C35.9999 18.7001 35.3999 18.1001 34.6999 18.1001Z" fill="#343A40"/>
<path d="M52.4997 20.7001C53.1997 20.7001 53.7997 20.1001 53.7997 19.4001C53.7997 18.7001 53.1997 18.1001 52.4997 18.1001C51.7997 18.1001 51.1997 18.7001 51.1997 19.4001C51.1997 20.1001 51.7997 20.7001 52.4997 20.7001Z" fill="#343A40"/>
<path d="M71.7 18.1V16.8C71.7 16.1 71.1 15.5 70.4 15.5C69.7 15.5 69.1 16.1 69.1 16.8C69.1 17.5 68.5 18.1 67.8 18.1C67.1 18.1 66.5 18.7 66.5 19.4C66.5 20.1 67.1 20.7 67.8 20.7H69.1H70.4C71.1 20.7 71.7 20.1 71.7 19.4V18.1Z" fill="#343A40"/>
<path d="M32.0998 20.6997C31.3998 20.6997 30.7998 21.2997 30.7998 21.9997C30.7998 22.6997 31.3998 23.2997 32.0998 23.2997C32.7998 23.2997 33.3998 22.6997 33.3998 21.9997C33.3998 21.2997 32.7998 20.6997 32.0998 20.6997Z" fill="#343A40"/>
<path d="M37.2 23.2001C37.9 23.2001 38.5 23.8001 38.5 24.5001C38.5 25.2001 39.1 25.8001 39.8 25.8001C40.5 25.8001 41.1 25.2001 41.1 24.5001V23.2001V20.7001V19.4001C41.1 18.7001 40.5 18.1001 39.8 18.1001C39.1 18.1001 38.5 18.7001 38.5 19.4001C38.5 20.1001 37.9 20.7001 37.2 20.7001C36.5 20.7001 36 21.2001 36 21.9001C36 22.6001 36.5 23.2001 37.2 23.2001Z" fill="#343A40"/>
<path d="M34.6999 25.7997C35.3999 25.7997 35.9999 25.1997 35.9999 24.4997C35.9999 23.7997 35.3999 23.1997 34.6999 23.1997C33.9999 23.1997 33.3999 23.7997 33.3999 24.4997C33.3999 25.1997 33.9999 25.7997 34.6999 25.7997Z" fill="#343A40"/>
<path d="M66.4997 23.2V21.9C66.4997 21.2 65.8997 20.6 65.1997 20.6C64.4997 20.6 63.9997 20.1 63.9997 19.4C63.9997 18.7 63.3997 18.1 62.6997 18.1C61.9997 18.1 61.3997 17.5 61.3997 16.8C61.3997 16.1 60.7997 15.5 60.0997 15.5H58.7997H57.4997C56.7997 15.5 56.1997 16.1 56.1997 16.8C56.1997 17.5 56.7997 18.1 57.4997 18.1C58.1997 18.1 58.7997 18.7 58.7997 19.4C58.7997 20.1 58.1997 20.7 57.4997 20.7C56.7997 20.7 56.1997 21.3 56.1997 22C56.1997 22.7 56.7997 23.3 57.4997 23.3C58.1997 23.3 58.7997 23.9 58.7997 24.6C58.7997 25.3 59.3997 25.9 60.0997 25.9C60.7997 25.9 61.3997 25.3 61.3997 24.6C61.3997 23.9 61.9997 23.3 62.6997 23.3C63.3997 23.3 63.9997 23.9 63.9997 24.6C63.9997 25.3 64.5997 25.9 65.2997 25.9C65.9997 25.9 66.5997 25.3 66.5997 24.6V23.2H66.4997Z" fill="#343A40"/>
<path d="M70.3996 23.1997C69.6996 23.1997 69.0996 23.7997 69.0996 24.4997C69.0996 25.1997 69.6996 25.7997 70.3996 25.7997C71.0996 25.7997 71.6996 25.1997 71.6996 24.4997C71.6996 23.7997 71.0996 23.1997 70.3996 23.1997Z" fill="#343A40"/>
<path d="M29.5998 28.3001C30.2998 28.3001 30.8998 27.7001 30.8998 27.0001V25.7001V24.4001C30.8998 23.7001 30.2998 23.1001 29.5998 23.1001C28.8998 23.1001 28.2998 23.7001 28.2998 24.4001V25.7001V27.0001C28.2998 27.7001 28.8998 28.3001 29.5998 28.3001Z" fill="#343A40"/>
<path d="M67.8 28.2997C68.5 28.2997 69.1 27.6997 69.1 26.9997C69.1 26.2997 68.5 25.6997 67.8 25.6997C67.1 25.6997 66.5 26.2997 66.5 26.9997C66.5 27.6997 67.1 28.2997 67.8 28.2997Z" fill="#343A40"/>
<path d="M21.8996 30.8998H23.1996H24.4996C25.1996 30.8998 25.7996 30.2998 25.7996 29.5998C25.7996 28.8998 25.1996 28.2998 24.4996 28.2998H23.1996H21.8996C21.1996 28.2998 20.5996 28.8998 20.5996 29.5998C20.5996 30.2998 21.1996 30.8998 21.8996 30.8998Z" fill="#343A40"/>
<path d="M57.6 30.9C58.3 30.9 58.9 30.3 58.9 29.6V28.3V27C58.9 26.3 58.3 25.7 57.6 25.7C56.9 25.7 56.3 25.1 56.3 24.4C56.3 23.7 55.7 23.1 55 23.1C54.3 23.1 53.7 23.7 53.7 24.4C53.7 25.1 53.1 25.7 52.4 25.7C51.7 25.7 51.1 25.1 51.1 24.4V23.1V21.8C51.1 21.1 50.5 20.5 49.8 20.5C49.1 20.5 48.5 21.1 48.5 21.8V23.1V24.4C48.5 25.1 47.9 25.7 47.2 25.7C46.5 25.7 45.9 25.1 45.9 24.4C45.9 23.7 45.3 23.1 44.6 23.1C43.9 23.1 43.3 23.7 43.3 24.4C43.3 25.1 42.7 25.7 42 25.7C41.3 25.7 41 26.3 41 27V28.3V29.6C41 30.3 41.6 30.9 42.3 30.9C43 30.9 43.6 31.5 43.6 32.2C43.6 32.9 44.2 33.5 44.9 33.5H46.2H48.7H50C50.7 33.5 51.3 32.9 51.3 32.2V30.9V29.6C51.3 28.9 51.9 28.3 52.6 28.3H53.9H55.2C55.9 28.3 56.5 28.9 56.5 29.6C56.5 30.3 56.9 30.9 57.6 30.9ZM46.2 29.6C46.2 28.9 46.8 28.3 47.5 28.3C48.2 28.3 48.8 28.9 48.8 29.6C48.8 30.3 48.2 30.9 47.5 30.9C46.8 30.9 46.2 30.3 46.2 29.6Z" fill="#343A40"/>
<path d="M65.2999 28.2997C64.5999 28.2997 63.9999 27.6997 63.9999 26.9997C63.9999 26.2997 63.3999 25.6997 62.6999 25.6997C61.9999 25.6997 61.3999 26.2997 61.3999 26.9997V28.2997V29.5997C61.3999 30.2997 61.9999 30.8997 62.6999 30.8997H63.9999H65.2999C65.9999 30.8997 66.5999 30.2997 66.5999 29.5997C66.5999 28.8997 65.9999 28.2997 65.2999 28.2997Z" fill="#343A40"/>
<path d="M90.8 30.8998C91.5 30.8998 92.1 30.2998 92.1 29.5998C92.1 28.8998 91.5 28.2998 90.8 28.2998C90.1 28.2998 89.5 28.8998 89.5 29.5998C89.5 30.2998 90.1 30.8998 90.8 30.8998Z" fill="#343A40"/>
<path d="M9.1999 33.3999C9.8999 33.3999 10.4999 33.9999 10.4999 34.6999V35.9999V37.2999C10.4999 37.9999 11.0999 38.5999 11.7999 38.5999C12.4999 38.5999 13.0999 37.9999 13.0999 37.2999V35.9999V33.4999V32.1999C13.0999 31.4999 12.4999 30.8999 11.7999 30.8999H10.4999H9.1999C8.4999 30.8999 7.8999 31.4999 7.8999 32.1999C7.8999 32.8999 8.4999 33.3999 9.1999 33.3999Z" fill="#343A40"/>
<path d="M26.9997 33.3998C27.6997 33.3998 28.2997 33.9998 28.2997 34.6998V35.9998V37.2998C28.2997 37.9998 28.8997 38.5998 29.5997 38.5998C30.2997 38.5998 30.8997 37.9998 30.8997 37.2998C30.8997 36.5998 31.4997 35.9998 32.1997 35.9998C32.8997 35.9998 33.4997 35.3998 33.4997 34.6998V33.3998V32.0998C33.4997 31.3998 32.8997 30.7998 32.1997 30.7998H30.8997H28.3997H26.9997C26.2997 30.7998 25.6997 31.3998 25.6997 32.0998C25.6997 32.7998 26.2997 33.3998 26.9997 33.3998Z" fill="#343A40"/>
<path d="M38.4999 30.8998V29.5998C38.4999 28.8998 37.8999 28.2998 37.1999 28.2998H35.9999H34.6999C33.9999 28.2998 33.3999 28.8998 33.3999 29.5998C33.3999 30.2998 33.9999 30.8998 34.6999 30.8998C35.3999 30.8998 35.9999 31.4998 35.9999 32.1998C35.9999 32.8998 36.5999 33.4998 37.2999 33.4998C37.9999 33.4998 38.5999 32.8998 38.5999 32.1998V30.8998H38.4999Z" fill="#343A40"/>
<path d="M55.0998 30.8999C54.3998 30.8999 53.7998 31.4999 53.7998 32.1999C53.7998 32.8999 54.3998 33.4999 55.0998 33.4999C55.7998 33.4999 56.3998 32.8999 56.3998 32.1999C56.3998 31.4999 55.7998 30.8999 55.0998 30.8999Z" fill="#343A40"/>
<path d="M60.1999 33.3998C60.8999 33.3998 61.4999 32.7998 61.4999 32.0998C61.4999 31.3998 60.8999 30.7998 60.1999 30.7998C59.4999 30.7998 58.8999 31.3998 58.8999 32.0998C58.8999 32.7998 59.4999 33.3998 60.1999 33.3998Z" fill="#343A40"/>
<path d="M70.3996 33.3997C71.0996 33.3997 71.6996 32.7997 71.6996 32.0997V30.7997V29.4997C71.6996 28.7997 71.0996 28.1997 70.3996 28.1997C69.6996 28.1997 69.0996 28.7997 69.0996 29.4997V30.7997V32.0997C69.0996 32.7997 69.6996 33.3997 70.3996 33.3997Z" fill="#343A40"/>
<path d="M72.8996 35.9999C73.5996 35.9999 74.1996 35.3999 74.1996 34.6999C74.1996 33.9999 73.5996 33.3999 72.8996 33.3999C72.1996 33.3999 71.5996 33.9999 71.5996 34.6999C71.5996 35.3999 72.1996 35.9999 72.8996 35.9999Z" fill="#343A40"/>
<path d="M90.8 33.3998C90.1 33.3998 89.5 32.7998 89.5 32.0998C89.5 31.3998 88.9 30.7998 88.2 30.7998C87.5 30.7998 87 30.2998 87 29.5998C87 28.8998 86.4 28.2998 85.7 28.2998C85 28.2998 84.4 28.8998 84.4 29.5998C84.4 30.2998 83.8 30.8998 83.1 30.8998C82.4 30.8998 81.8 30.2998 81.8 29.5998C81.8 28.8998 81.2 28.2998 80.5 28.2998C79.8 28.2998 79.2 28.8998 79.2 29.5998C79.2 30.2998 78.6 30.8998 77.9 30.8998C77.2 30.8998 76.6 30.2998 76.6 29.5998C76.6 28.8998 76 28.2998 75.3 28.2998C74.6 28.2998 74 28.8998 74 29.5998V30.8998V32.1998C74 32.8998 74.6 33.4998 75.3 33.4998H76.6H78C78.7 33.4998 79.3 34.0998 79.3 34.7998C79.3 35.4998 79.9 36.0998 80.6 36.0998C81.3 36.0998 81.9 36.6998 81.9 37.3998C81.9 38.0998 81.3 38.6998 80.6 38.6998C79.9 38.6998 79.3 38.0998 79.3 37.3998C79.3 36.6998 78.7 35.9998 78 35.9998H76.7H75.4C74.7 35.9998 74.1 36.5998 74.1 37.2998C74.1 37.9998 73.5 38.5998 72.8 38.5998H71.5H70.2C69.5 38.5998 68.9 37.9998 68.9 37.2998C68.9 36.5998 68.5 35.9998 67.8 35.9998C67.1 35.9998 66.5 36.5998 66.5 37.2998V38.5998V40.9998V43.5998V46.0998V47.3998C66.5 48.0998 67.1 48.6998 67.8 48.6998C68.5 48.6998 69.1 49.2998 69.1 49.9998V51.2998V52.5998C69.1 53.2998 69.7 53.8998 70.4 53.8998H71.7H73C73.7 53.8998 74.3 53.2998 74.3 52.5998C74.3 51.8998 73.7 51.2998 73 51.2998C72.3 51.2998 71.7 50.6998 71.7 49.9998V48.6998V47.3998C71.7 46.6998 72.3 46.0998 73 46.0998C73.7 46.0998 74.3 45.4998 74.3 44.7998C74.3 44.0998 74.9 43.4998 75.6 43.4998C76.3 43.4998 76.9 42.8998 76.9 42.1998C76.9 41.4998 77.3 40.9998 78 40.9998H79.3H80.6C81.3 40.9998 81.9 41.5998 81.9 42.2998C81.9 42.9998 82.5 43.5998 83.2 43.5998H84.5H85.8C86.5 43.5998 87.1 42.9998 87.1 42.2998C87.1 41.5998 87.7 40.9998 88.4 40.9998H89.7H91C91.7 40.9998 92.3 40.3998 92.3 39.6998V38.3998V35.9998V34.6998C92 33.9998 91.5 33.3998 90.8 33.3998ZM69.1 42.2998C69.1 41.5998 69.7 40.9998 70.4 40.9998C71.1 40.9998 71.7 41.5998 71.7 42.2998C71.7 42.9998 71.1 43.5998 70.4 43.5998C69.7 43.5998 69.1 42.9998 69.1 42.2998ZM87 37.1998C87 36.4998 86.4 35.8998 85.7 35.8998C85 35.8998 84.4 35.2998 84.4 34.5998C84.4 33.8998 85 33.2998 85.7 33.2998C86.4 33.2998 87 33.9998 87 34.6998C87 35.3998 87.6 35.9998 88.3 35.9998C89 35.9998 89.6 36.5998 89.6 37.2998C89.6 37.9998 89 38.5998 88.3 38.5998C87.6 38.5998 87 37.8998 87 37.1998Z" fill="#343A40"/>
<path d="M11.6999 41.0001C10.9999 41.0001 10.3999 41.6001 10.3999 42.3001V43.6001V44.9001C10.3999 45.6001 10.9999 46.2001 11.6999 46.2001C12.3999 46.2001 12.9999 45.6001 12.9999 44.9001C12.9999 44.2001 13.5999 43.6001 14.2999 43.6001H15.5999H18.0999H19.3999C20.0999 43.6001 20.6999 43.0001 20.6999 42.3001C20.6999 41.6001 21.2999 41.0001 21.9999 41.0001H23.2999H24.5999C25.2999 41.0001 25.8999 40.4001 25.8999 39.7001C25.8999 39.0001 25.2999 38.4001 24.5999 38.4001H23.2999H21.9999C21.2999 38.4001 20.6999 37.8001 20.6999 37.1001C20.6999 36.4001 21.2999 35.8001 21.9999 35.8001H23.2999H24.5999C25.2999 35.8001 25.8999 35.2001 25.8999 34.5001C25.8999 33.8001 25.2999 33.2001 24.5999 33.2001H23.2999H21.9999C21.2999 33.2001 20.6999 32.6001 20.6999 31.9001C20.6999 31.2001 20.0999 30.6001 19.3999 30.6001H18.0999H16.7999C16.0999 30.6001 15.4999 31.2001 15.4999 31.9001C15.4999 32.6001 16.0999 33.2001 16.7999 33.2001C17.4999 33.2001 18.0999 33.8001 18.0999 34.5001C18.0999 35.2001 17.4999 36.0001 16.7999 36.0001C16.0999 36.0001 15.4999 36.6001 15.4999 37.3001C15.4999 38.0001 14.8999 38.6001 14.1999 38.6001C13.4999 38.6001 12.9999 39.1001 12.9999 39.8001C12.9999 40.5001 12.3999 41.0001 11.6999 41.0001Z" fill="#343A40"/>
<path d="M32.0997 41H30.7997H29.4997C28.7997 41 28.1997 41.6 28.1997 42.3V43.6V44.9C28.1997 45.6 28.7997 46.2 29.4997 46.2C30.1997 46.2 30.7997 45.6 30.7997 44.9C30.7997 44.2 31.3997 43.6 32.0997 43.6C32.7997 43.6 33.3997 43 33.3997 42.3C33.3997 41.6 32.7997 41 32.0997 41Z" fill="#343A40"/>
<path d="M25.7997 44.9001C25.7997 44.2001 25.1997 43.6001 24.4997 43.6001C23.7997 43.6001 23.1997 44.2001 23.1997 44.9001C23.1997 45.6001 23.7997 46.2001 24.4997 46.2001C25.1997 46.2001 25.7997 45.6001 25.7997 44.9001Z" fill="#343A40"/>
<path d="M80.5997 43.6001C79.8997 43.6001 79.2997 44.2001 79.2997 44.9001C79.2997 45.6001 78.6997 46.2001 77.9997 46.2001C77.2997 46.2001 76.6997 46.8001 76.6997 47.5001C76.6997 48.2001 77.2997 48.8001 77.9997 48.8001H79.2997H80.5997C81.2997 48.8001 81.8997 48.2001 81.8997 47.5001V46.2001V44.9001C81.7997 44.2001 81.2997 43.6001 80.5997 43.6001Z" fill="#343A40"/>
<path d="M89.5 44.9001C89.5 44.2001 88.9 43.6001 88.2 43.6001C87.5 43.6001 87 44.2001 87 44.9001C87 45.6001 87.6 46.2001 88.3 46.2001C89 46.2001 89.5 45.6001 89.5 44.9001Z" fill="#343A40"/>
<path d="M9.1999 48.7001C9.8999 48.7001 10.4999 48.1001 10.4999 47.4001C10.4999 46.7001 9.8999 46.1001 9.1999 46.1001C8.4999 46.1001 7.8999 46.7001 7.8999 47.4001C7.8999 48.1001 8.4999 48.7001 9.1999 48.7001Z" fill="#343A40"/>
<path d="M16.7999 48.7001H18.0999H19.3999C20.0999 48.7001 20.6999 48.1001 20.6999 47.4001C20.6999 46.7001 20.0999 46.1001 19.3999 46.1001H18.0999H15.5999H14.2999C13.5999 46.1001 12.9999 46.7001 12.9999 47.4001C12.9999 48.1001 12.3999 48.7001 11.6999 48.7001C10.9999 48.7001 10.3999 49.3001 10.3999 50.0001V51.3001V52.6001C10.3999 53.3001 10.9999 53.9001 11.6999 53.9001C12.3999 53.9001 12.9999 53.3001 12.9999 52.6001C12.9999 51.9001 13.5999 51.3001 14.2999 51.3001C14.9999 51.3001 15.5999 50.7001 15.5999 50.0001C15.5999 49.3001 16.0999 48.7001 16.7999 48.7001Z" fill="#343A40"/>
<path d="M21.8996 51.2001H23.1996H24.4996C25.1996 51.2001 25.7996 50.6001 25.7996 49.9001C25.7996 49.2001 25.1996 48.6001 24.4996 48.6001H23.1996H21.8996C21.1996 48.6001 20.5996 49.2001 20.5996 49.9001C20.5996 50.6001 21.1996 51.2001 21.8996 51.2001Z" fill="#343A40"/>
<path d="M32.0998 48.6997C31.3998 48.6997 30.7998 49.2997 30.7998 49.9997C30.7998 50.6997 31.3998 51.2997 32.0998 51.2997C32.7998 51.2997 33.3998 50.6997 33.3998 49.9997C33.3998 49.2997 32.7998 48.6997 32.0998 48.6997Z" fill="#343A40"/>
<path d="M90.7997 48.6997C90.0997 48.6997 89.4997 49.2997 89.4997 49.9997V51.2997V53.7997V55.0997C89.4997 55.7997 88.8997 56.3997 88.1997 56.3997H86.9997H85.6997C84.9997 56.3997 84.3997 56.9997 84.3997 57.6997V58.9997V60.2997C84.3997 60.9997 83.7997 61.5997 83.0997 61.5997C82.3997 61.5997 81.7997 60.9997 81.7997 60.2997C81.7997 59.5997 81.1997 58.9997 80.4997 58.9997C79.7997 58.9997 79.1997 58.3997 79.1997 57.6997V56.3997V55.0997C79.1997 54.3997 78.5997 53.7997 77.8997 53.7997H76.5997H75.2997C74.5997 53.7997 73.9997 54.3997 73.9997 55.0997V56.3997V57.6997C73.9997 58.3997 74.5997 58.9997 75.2997 58.9997C75.9997 58.9997 76.5997 59.5997 76.5997 60.2997C76.5997 60.9997 77.1997 61.5997 77.8997 61.5997C78.5997 61.5997 79.1997 62.1997 79.1997 62.8997V63.9997V65.2997C79.1997 65.9997 79.7997 66.5997 80.4997 66.5997H81.7997H83.0997C83.7997 66.5997 84.3997 65.9997 84.3997 65.2997C84.3997 64.5997 84.9997 63.9997 85.6997 63.9997C86.3997 63.9997 86.9997 64.5997 86.9997 65.2997C86.9997 65.9997 87.5997 66.5997 88.2997 66.5997C88.9997 66.5997 89.5997 67.1997 89.5997 67.8997C89.5997 68.5997 88.9997 69.1997 88.2997 69.1997C87.5997 69.1997 86.9997 68.4997 86.9997 67.7997C86.9997 67.0997 86.3997 66.4997 85.6997 66.4997C84.9997 66.4997 84.3997 67.0997 84.3997 67.7997V69.0997V70.3997C84.3997 71.0997 83.7997 71.6997 83.0997 71.6997C82.3997 71.6997 81.7997 71.0997 81.7997 70.3997C81.7997 69.6997 81.1997 69.0997 80.4997 69.0997C79.7997 69.0997 79.1997 68.4997 79.1997 67.7997C79.1997 67.0997 78.5997 66.4997 77.8997 66.4997H76.5997H75.2997C74.5997 66.4997 73.9997 65.8997 73.9997 65.1997C73.9997 64.4997 74.5997 63.8997 75.2997 63.8997C75.9997 63.8997 76.5997 63.2997 76.5997 62.5997C76.5997 61.8997 75.9997 61.2997 75.2997 61.2997C74.5997 61.2997 73.9997 60.6997 73.9997 59.9997C73.9997 59.2997 73.3997 58.6997 72.6997 58.6997C71.9997 58.6997 71.3997 59.2997 71.3997 59.9997C71.3997 60.6997 70.7997 61.2997 70.0997 61.2997C69.3997 61.2997 68.7997 61.8997 68.7997 62.5997V63.9997V65.2997C68.7997 65.9997 69.3997 66.5997 70.0997 66.5997C70.7997 66.5997 71.3997 67.1997 71.3997 67.8997C71.3997 68.5997 70.7997 69.1997 70.0997 69.1997C69.3997 69.1997 68.7997 68.5997 68.7997 67.8997C68.7997 67.1997 68.1997 66.5997 67.4997 66.5997H66.1997H63.9997H62.6997C61.9997 66.5997 61.3997 67.1997 61.3997 67.8997C61.3997 68.5997 60.7997 69.1997 60.0997 69.1997H58.7997H57.4997C56.7997 69.1997 56.1997 69.7997 56.1997 70.4997V71.7997V73.0997C56.1997 73.7997 56.7997 74.3997 57.4997 74.3997C58.1997 74.3997 58.7997 73.7997 58.7997 73.0997C58.7997 72.3997 59.3997 71.7997 60.0997 71.7997H61.3997H62.6997C63.3997 71.7997 63.9997 72.3997 63.9997 73.0997C63.9997 73.7997 64.5997 74.3997 65.2997 74.3997C65.9997 74.3997 66.5997 73.7997 66.5997 73.0997C66.5997 72.3997 67.1997 71.7997 67.8997 71.7997C68.5997 71.7997 69.1997 72.3997 69.1997 73.0997V74.3997V76.8997V79.3997V80.6997C69.1997 81.3997 69.7997 81.9997 70.4997 81.9997C71.1997 81.9997 71.7997 82.5997 71.7997 83.2997C71.7997 83.9997 71.1997 84.5997 70.4997 84.5997C69.7997 84.5997 69.1997 85.1997 69.1997 85.8997C69.1997 86.5997 69.7997 87.1997 70.4997 87.1997C71.1997 87.1997 71.7997 87.7997 71.7997 88.4997C71.7997 89.1997 72.3997 89.7997 73.0997 89.7997C73.7997 89.7997 74.3997 89.1997 74.3997 88.4997C74.3997 87.7997 74.9997 87.1997 75.6997 87.1997H76.9997H77.9997C78.6997 87.1997 79.2997 86.5997 79.2997 85.8997C79.2997 85.1997 78.6997 84.5997 77.9997 84.5997H76.6997H75.3997C74.6997 84.5997 74.0997 83.9997 74.0997 83.2997C74.0997 82.5997 74.6997 81.9997 75.3997 81.9997H76.6997H79.1997H80.4997C81.1997 81.9997 81.7997 82.5997 81.7997 83.2997V84.5997V85.8997C81.7997 86.5997 81.1997 87.1997 80.4997 87.1997C79.7997 87.1997 79.1997 87.7997 79.1997 88.4997C79.1997 89.1997 79.7997 89.7997 80.4997 89.7997H81.7997H83.0997C83.7997 89.7997 84.3997 89.1997 84.3997 88.4997V86.9997V85.6997C84.3997 84.9997 84.9997 84.3997 85.6997 84.3997C86.3997 84.3997 86.9997 84.9997 86.9997 85.6997V86.9997V89.4997V90.7997C86.9997 91.4997 87.5997 92.0997 88.2997 92.0997C88.9997 92.0997 89.5997 91.4997 89.5997 90.7997C89.5997 90.0997 90.1997 89.4997 90.8997 89.4997C91.5997 89.4997 92.1997 88.8997 92.1997 88.1997V86.9997V85.6997C92.1997 84.9997 91.5997 84.3997 90.8997 84.3997C90.1997 84.3997 89.5997 83.7997 89.5997 83.0997C89.5997 82.3997 88.9997 81.7997 88.2997 81.7997C87.5997 81.7997 86.9997 81.2997 86.9997 80.5997V79.2997V77.9997C86.9997 77.2997 86.3997 76.6997 85.6997 76.6997C84.9997 76.6997 84.3997 77.2997 84.3997 77.9997C84.3997 78.6997 83.7997 79.2997 83.0997 79.2997C82.3997 79.2997 81.7997 78.6997 81.7997 77.9997V76.6997V75.3997C81.7997 74.6997 82.3997 74.0997 83.0997 74.0997H84.3997H85.6997C86.3997 74.0997 86.9997 74.6997 86.9997 75.3997C86.9997 76.0997 87.5997 76.6997 88.2997 76.6997H89.5997H90.8997C91.5997 76.6997 92.1997 76.0997 92.1997 75.3997V74.0997V71.5997V69.0997V66.4997V65.1997C92.1997 64.4997 91.5997 63.8997 90.8997 63.8997C90.1997 63.8997 89.5997 63.2997 89.5997 62.5997V61.2997V59.9997C89.5997 59.2997 90.1997 58.6997 90.8997 58.6997C91.5997 58.6997 92.1997 58.0997 92.1997 57.3997V56.0997V53.4997V50.9997V49.9997C91.9997 49.2997 91.4997 48.6997 90.7997 48.6997ZM79.2997 77.9997C79.2997 78.6997 78.6997 79.2997 77.9997 79.2997H76.6997H74.1997H72.8997C72.1997 79.2997 71.5997 78.6997 71.5997 77.9997V76.6997V74.1997V72.8997C71.5997 72.1997 72.1997 71.5997 72.8997 71.5997H74.1997H76.6997H77.9997C78.6997 71.5997 79.2997 72.1997 79.2997 72.8997V74.1997V76.6997V77.9997Z" fill="#343A40"/>
<path d="M80.5998 51.1997C79.8998 51.1997 79.2998 51.7997 79.2998 52.4997C79.2998 53.1997 79.8998 53.7997 80.5998 53.7997C81.2998 53.7997 81.8998 53.1997 81.8998 52.4997C81.8998 51.7997 81.2998 51.1997 80.5998 51.1997Z" fill="#343A40"/>
<path d="M85.6998 53.7997C86.3998 53.7997 86.9998 53.1997 86.9998 52.4997V51.1997V49.9997C86.9998 49.2997 86.3998 48.6997 85.6998 48.6997H84.3998H83.0998C82.3998 48.6997 81.7998 49.2997 81.7998 49.9997C81.7998 50.6997 82.3998 51.2997 83.0998 51.2997C83.7998 51.2997 84.3998 51.8997 84.3998 52.5997C84.3998 53.2997 84.9998 53.7997 85.6998 53.7997Z" fill="#343A40"/>
<path d="M14.3 53.7998C13.6 53.7998 13 54.3998 13 55.0998C13 55.7998 13.6 56.3998 14.3 56.3998C15 56.3998 15.6 55.7998 15.6 55.0998C15.6 54.3998 15 53.7998 14.3 53.7998Z" fill="#343A40"/>
<path d="M83.0998 56.3998C83.8178 56.3998 84.3998 55.8178 84.3998 55.0998C84.3998 54.3818 83.8178 53.7998 83.0998 53.7998C82.3818 53.7998 81.7998 54.3818 81.7998 55.0998C81.7998 55.8178 82.3818 56.3998 83.0998 56.3998Z" fill="#343A40"/>
<path d="M33.4 56.3998V55.0998C33.4 54.3998 32.8 53.7998 32.1 53.7998C31.4 53.7998 30.8 54.3998 30.8 55.0998C30.8 55.7998 30.2 56.3998 29.5 56.3998C28.8 56.3998 28.2 55.7998 28.2 55.0998C28.2 54.3998 27.6 53.7998 26.9 53.7998H25.6H24.3C23.6 53.7998 23 54.3998 23 55.0998C23 55.7998 23.6 56.3998 24.3 56.3998C25 56.3998 25.6 56.9998 25.6 57.6998C25.6 58.3998 26.2 58.9998 26.9 58.9998H28.2H30.7H32C32.7 58.9998 33.3 58.3998 33.3 57.6998V56.3998H33.4Z" fill="#343A40"/>
<path d="M67.8 58.8997C68.5 58.8997 69.1 58.2997 69.1 57.5997V56.2997V54.9997C69.1 54.2997 68.5 53.6997 67.8 53.6997C67.1 53.6997 66.5 54.2997 66.5 54.9997V56.2997V57.5997C66.5 58.2997 67.1 58.8997 67.8 58.8997Z" fill="#343A40"/>
<path d="M21.8996 61.4999H23.1996H24.4996C25.1996 61.4999 25.7996 60.8999 25.7996 60.1999C25.7996 59.4999 25.1996 58.8999 24.4996 58.8999H23.1996H21.8996C21.1996 58.8999 20.5996 59.4999 20.5996 60.1999C20.5996 60.8999 21.1996 61.4999 21.8996 61.4999Z" fill="#343A40"/>
<path d="M18.0998 66.4999V65.1999C18.0998 64.4999 18.6998 63.8999 19.3998 63.8999C20.0998 63.8999 20.6998 63.2999 20.6998 62.5999C20.6998 61.8999 20.0998 61.2999 19.3998 61.2999C18.6998 61.2999 18.0998 60.6999 18.0998 59.9999C18.0998 59.2999 18.6998 58.6999 19.3998 58.6999C20.0998 58.6999 20.6998 58.0999 20.6998 57.3999V56.0999V53.4999V52.1999C20.6998 51.4999 20.0998 50.8999 19.3998 50.8999H18.0998H16.7998C16.0998 50.8999 15.4998 51.4999 15.4998 52.1999C15.4998 52.8999 16.0998 53.4999 16.7998 53.4999C17.4998 53.4999 18.0998 54.0999 18.0998 54.7999C18.0998 55.4999 17.4998 56.0999 16.7998 56.0999C16.0998 56.0999 15.4998 56.6999 15.4998 57.3999V58.6999V61.1999V63.9999V65.2999C15.4998 65.9999 14.8998 66.5999 14.1998 66.5999C13.4998 66.5999 12.9998 67.0999 12.9998 67.7999C12.9998 68.4999 12.3998 69.0999 11.6998 69.0999C10.9998 69.0999 10.3998 68.4999 10.3998 67.7999V66.4999V65.1999C10.3998 64.4999 10.9998 63.8999 11.6998 63.8999C12.3998 63.8999 12.9998 63.2999 12.9998 62.5999V61.2999V59.9999C12.9998 59.2999 12.3998 58.6999 11.6998 58.6999C10.9998 58.6999 10.3998 58.0999 10.3998 57.3999C10.3998 56.6999 9.7998 56.0999 9.0998 56.0999C8.3998 56.0999 7.7998 56.6999 7.7998 57.3999V58.6999V61.1999V63.9999V66.4999V69.0999V70.3999C7.7998 71.0999 8.3998 71.6999 9.0998 71.6999H10.3998H12.9998H14.2998C14.9998 71.6999 15.5998 71.0999 15.5998 70.3999C15.5998 69.6999 16.1998 69.0999 16.8998 69.0999C17.5998 69.0999 18.1998 68.4999 18.1998 67.7999V66.4999H18.0998Z" fill="#343A40"/>
<path d="M21.8996 66.5C21.1996 66.5 20.5996 67.1 20.5996 67.8C20.5996 68.5 21.1996 69.1 21.8996 69.1C22.5996 69.1 23.1996 68.5 23.1996 67.8C23.1996 67.1 22.5996 66.5 21.8996 66.5Z" fill="#343A40"/>
<path d="M44.8996 69.1C45.6176 69.1 46.1996 68.518 46.1996 67.8C46.1996 67.082 45.6176 66.5 44.8996 66.5C44.1816 66.5 43.5996 67.082 43.5996 67.8C43.5996 68.518 44.1816 69.1 44.8996 69.1Z" fill="#343A40"/>
<path d="M55.0997 69.1C55.7997 69.1 56.3997 68.5 56.3997 67.8C56.3997 67.1 55.7997 66.5 55.0997 66.5H53.7997H52.4997C51.7997 66.5 51.1997 67.1 51.1997 67.8C51.1997 68.5 51.7997 69.1 52.4997 69.1H53.7997H55.0997Z" fill="#343A40"/>
<path d="M19.3996 69.1001C18.6996 69.1001 18.0996 69.7001 18.0996 70.4001C18.0996 71.1001 18.6996 71.7001 19.3996 71.7001C20.0996 71.7001 20.6996 71.1001 20.6996 70.4001C20.6996 69.7001 20.0996 69.1001 19.3996 69.1001Z" fill="#343A40"/>
<path d="M28.2997 69.0999V66.4999V63.9999V62.6999C28.2997 61.9999 27.6997 61.3999 26.9997 61.3999C26.2997 61.3999 25.6997 61.9999 25.6997 62.6999C25.6997 63.3999 25.1997 63.9999 24.4997 63.9999C23.7997 63.9999 23.1997 64.5999 23.1997 65.2999C23.1997 65.9999 23.7997 66.5999 24.4997 66.5999C25.1997 66.5999 25.7997 67.1999 25.7997 67.8999C25.7997 68.5999 25.1997 69.1999 24.4997 69.1999C23.7997 69.1999 23.1997 69.7999 23.1997 70.4999C23.1997 71.1999 23.7997 71.7999 24.4997 71.7999H25.7997H26.9997C27.6997 71.7999 28.2997 71.1999 28.2997 70.4999V69.0999Z" fill="#343A40"/>
<path d="M34.6999 71.7001C35.3999 71.7001 35.9999 71.1001 35.9999 70.4001C35.9999 69.7001 35.3999 69.1001 34.6999 69.1001C33.9999 69.1001 33.3999 69.7001 33.3999 70.4001C33.3999 71.1001 33.9999 71.7001 34.6999 71.7001Z" fill="#343A40"/>
<path d="M32.0997 71.6997H30.7997H29.4997C28.7997 71.6997 28.1997 72.2997 28.1997 72.9997C28.1997 73.6997 28.7997 74.2997 29.4997 74.2997C30.1997 74.2997 30.7997 74.8997 30.7997 75.5997C30.7997 76.2997 31.3997 76.8997 32.0997 76.8997C32.7997 76.8997 33.3997 76.2997 33.3997 75.5997V74.2997V72.9997C33.3997 72.1997 32.7997 71.6997 32.0997 71.6997Z" fill="#343A40"/>
<path d="M75.4997 74.1997C74.7997 74.1997 74.1997 74.7997 74.1997 75.4997C74.1997 76.1997 74.7997 76.7997 75.4997 76.7997C76.1997 76.7997 76.7997 76.1997 76.7997 75.4997C76.7997 74.7997 76.1997 74.1997 75.4997 74.1997Z" fill="#343A40"/>
<path d="M29.5998 76.7998C28.8998 76.7998 28.2998 77.3998 28.2998 78.0998C28.2998 78.7998 28.8998 79.3998 29.5998 79.3998C30.2998 79.3998 30.8998 78.7998 30.8998 78.0998C30.8998 77.3998 30.2998 76.7998 29.5998 76.7998Z" fill="#343A40"/>
<path d="M37.2 79.2997C37.9 79.2997 38.5 78.6997 38.5 77.9997C38.5 77.2997 37.9 76.6997 37.2 76.6997C36.5 76.6997 36 77.2997 36 77.9997C36 78.6997 36.5 79.2997 37.2 79.2997Z" fill="#343A40"/>
<path d="M49.9998 76.8C50.6998 76.8 51.2998 77.4 51.2998 78.1C51.2998 78.8 51.8998 79.4 52.5998 79.4C53.2998 79.4 53.8998 78.8 53.8998 78.1V76.8V74.3V73C53.8998 72.3 53.2998 71.7 52.5998 71.7C51.8998 71.7 51.2998 72.3 51.2998 73C51.2998 73.7 50.6998 74.3 49.9998 74.3H48.6998H47.3998C46.6998 74.3 46.0998 73.7 46.0998 73C46.0998 72.3 45.4998 71.7 44.7998 71.7H43.4998H42.1998C41.4998 71.7 40.8998 71.1 40.8998 70.4V69.1V67.8C40.8998 67.1 40.2998 66.5 39.5998 66.5C38.8998 66.5 38.2998 67.1 38.2998 67.8V69.1V71.6V72.9C38.2998 73.6 38.8998 74.2 39.5998 74.2C40.2998 74.2 40.8998 74.8 40.8998 75.5C40.8998 76.2 41.4998 76.8 42.1998 76.8C42.8998 76.8 43.4998 77.4 43.4998 78.1C43.4998 78.8 44.0998 79.4 44.7998 79.4H46.0998H47.3998C48.0998 79.4 48.6998 78.8 48.6998 78.1C48.6998 77.4 49.2998 76.8 49.9998 76.8Z" fill="#343A40"/>
<path d="M65.3 76.7998C64.6 76.7998 64 77.3998 64 78.0998C64 78.7998 64.6 79.3998 65.3 79.3998C66 79.3998 66.6 78.7998 66.6 78.0998C66.6 77.3998 66 76.7998 65.3 76.7998Z" fill="#343A40"/>
<path d="M47.4 81.8999C46.7 81.8999 46.1 82.4999 46.1 83.1999C46.1 83.8999 45.5 84.4999 44.8 84.4999C44.1 84.4999 43.5 85.0999 43.5 85.7999C43.5 86.4999 44.1 87.0999 44.8 87.0999H46.1H47.4C48.1 87.0999 48.7 86.4999 48.7 85.7999V84.4999V83.1999C48.7 82.3999 48.1 81.8999 47.4 81.8999Z" fill="#343A40"/>
<path d="M67.8 84.3998C68.5 84.3998 69.1 83.7998 69.1 83.0998C69.1 82.3998 68.5 81.7998 67.8 81.7998C67.1 81.7998 66.5 82.3998 66.5 83.0998C66.5 83.7998 67.1 84.3998 67.8 84.3998Z" fill="#343A40"/>
<path d="M62.6998 84.4C61.9998 84.4 61.3998 83.8 61.3998 83.1C61.3998 82.4 61.9998 81.8 62.6998 81.8C63.3998 81.8 63.9998 81.2 63.9998 80.5C63.9998 79.8 63.3998 79.2 62.6998 79.2C61.9998 79.2 61.3998 78.6 61.3998 77.9C61.3998 77.2 61.9998 76.6 62.6998 76.6C63.3998 76.6 63.9998 76 63.9998 75.3C63.9998 74.6 63.3998 74 62.6998 74H61.3998H60.0998C59.3998 74 58.7998 74.6 58.7998 75.3C58.7998 76 58.1998 76.6 57.4998 76.6C56.7998 76.6 56.1998 77.2 56.1998 77.9C56.1998 78.6 55.5998 79.2 54.8998 79.2C54.1998 79.2 53.5998 79.8 53.5998 80.5C53.5998 81.2 52.9998 81.8 52.2998 81.8C51.5998 81.8 50.9998 82.4 50.9998 83.1C50.9998 83.8 51.5998 84.4 52.2998 84.4C52.9998 84.4 53.5998 85 53.5998 85.7C53.5998 86.4 53.1998 87 52.4998 87H51.1998H49.9998C49.2998 87 48.6998 87.6 48.6998 88.3C48.6998 89 48.0998 89.6 47.3998 89.6H46.0998H44.7998C44.0998 89.6 43.4998 89 43.4998 88.3C43.4998 87.6 42.9998 87 42.2998 87H40.9998H39.6998C38.9998 87 38.3998 86.4 38.3998 85.7C38.3998 85 37.7998 84.4 37.0998 84.4H35.9998H34.6998C33.9998 84.4 33.3998 83.8 33.3998 83.1V81.8V80.5C33.3998 79.8 32.7998 79.2 32.0998 79.2C31.3998 79.2 30.7998 79.8 30.7998 80.5V81.8V84.3V87V89.5V90.8C30.7998 91.5 31.3998 92.1 32.0998 92.1H33.3998H35.9998H37.2998C37.9998 92.1 38.5998 91.5 38.5998 90.8C38.5998 90.1 39.1998 89.5 39.8998 89.5C40.5998 89.5 41.1998 90.1 41.1998 90.8C41.1998 91.5 41.7998 92.1 42.4998 92.1H43.7998H46.3998H48.8998H51.3998H53.8998H56.3998H57.6998C58.3998 92.1 58.9998 91.5 58.9998 90.8V89.5V88.2C58.9998 87.5 59.5998 86.9 60.2998 86.9H61.5998H62.8998C63.5998 86.9 64.1998 86.3 64.1998 85.6C64.1998 84.9 63.3998 84.4 62.6998 84.4ZM56.2998 83.1C56.2998 82.4 56.8998 81.8 57.5998 81.8C58.2998 81.8 58.8998 82.4 58.8998 83.1C58.8998 83.8 58.2998 84.4 57.5998 84.4C56.8998 84.4 56.2998 83.8 56.2998 83.1Z" fill="#343A40"/>
<path d="M67.7999 87H66.4999H65.1999C64.4999 87 63.8999 87.6 63.8999 88.3V89.6V90.9C63.8999 91.6 64.4999 92.2 65.1999 92.2H66.4999H67.7999C68.4999 92.2 69.0999 91.6 69.0999 90.9V89.6V88.3C69.0999 87.5 68.4999 87 67.7999 87Z" fill="#343A40"/>
<path d="M75.4997 89.5C74.7997 89.5 74.1997 90.1 74.1997 90.8C74.1997 91.5 74.7997 92.1 75.4997 92.1C76.1997 92.1 76.7997 91.5 76.7997 90.8C76.7997 90.1 76.1997 89.5 75.4997 89.5Z" fill="#343A40"/>
<path d="M13.6999 7.8999H19.8999C21.4999 7.8999 22.8999 8.4999 23.9999 9.5999C25.0999 10.6999 25.6999 12.1999 25.6999 13.6999V25.6999H13.6999C12.0999 25.6999 10.6999 25.0999 9.5999 23.9999C8.4999 22.8999 7.8999 21.3999 7.8999 19.8999V13.6999C7.8999 12.0999 8.4999 10.6999 9.5999 9.5999C10.6999 8.4999 12.1999 7.8999 13.6999 7.8999ZM23.1999 23.1999V13.9999C23.1999 11.9999 21.5999 10.3999 19.5999 10.3999H13.9999C11.9999 10.3999 10.3999 11.9999 10.3999 13.9999V19.5999C10.3999 21.5999 11.9999 23.1999 13.9999 23.1999H23.1999Z" fill="#343A40"/>
<path d="M13 18.3C13 19.6 14.1 20.6 15.3 20.6H20.6V15.3C20.6 14 19.5 13 18.3 13H15.3C14 13 13 14.1 13 15.3V18.3Z" fill="#E8952F"/>
<path d="M80.0002 7.8999H86.2002C87.8002 7.8999 89.2002 8.4999 90.3002 9.5999C91.4002 10.6999 92.0002 12.1999 92.0002 13.6999V25.6999H80.0002C78.4002 25.6999 77.0002 25.0999 75.9002 23.9999C74.8002 22.8999 74.2002 21.3999 74.2002 19.8999V13.6999C74.2002 12.0999 74.8002 10.6999 75.9002 9.5999C77.0002 8.4999 78.5002 7.8999 80.0002 7.8999ZM89.5002 23.1999V13.9999C89.5002 11.9999 87.9002 10.3999 85.9002 10.3999H80.3002C78.3002 10.3999 76.7002 11.9999 76.7002 13.9999V19.5999C76.7002 21.5999 78.3002 23.1999 80.3002 23.1999H89.5002Z" fill="#343A40"/>
<path d="M79.2998 18.3C79.2998 19.6 80.3998 20.6 81.5998 20.6H86.8998V15.3C86.8998 14 85.7998 13 84.5998 13H81.5998C80.2998 13 79.2998 14.1 79.2998 15.3V18.3Z" fill="#E8952F"/>
<path d="M13.6999 74.2002H19.8999C21.4999 74.2002 22.8999 74.8002 23.9999 75.9002C25.0999 77.0002 25.6999 78.5002 25.6999 80.0002V92.0002H13.6999C12.0999 92.0002 10.6999 91.4002 9.5999 90.3002C8.4999 89.2002 7.8999 87.7002 7.8999 86.2002V80.0002C7.8999 78.4002 8.4999 77.0002 9.5999 75.9002C10.6999 74.8002 12.1999 74.2002 13.6999 74.2002ZM23.1999 89.5002V80.3002C23.1999 78.3002 21.5999 76.7002 19.5999 76.7002H13.9999C11.9999 76.7002 10.3999 78.3002 10.3999 80.3002V85.9002C10.3999 87.9002 11.9999 89.5002 13.9999 89.5002H23.1999Z" fill="#343A40"/>
<path d="M13 84.5998C13 85.8998 14.1 86.8998 15.3 86.8998H20.6V81.5998C20.6 80.2998 19.5 79.2998 18.3 79.2998H15.3C14 79.2998 13 80.3998 13 81.5998V84.5998Z" fill="#E8952F"/>
<path d="M59.8783 38.0018C53.8546 38.7179 47.6967 40.6839 47.2884 46.6343C47.0989 49.4174 47.9634 51.5079 48.9382 53.5262C46.4901 51.1381 42.955 49.2226 38 49.6898C41.0183 50.5375 44.581 52.159 46.4957 54.3018C46.9003 54.7582 47.4925 55.5482 47.3528 56.2192C47.121 57.3501 45.0187 57.1192 43.7459 57.1805C46.3853 58.2285 49.3355 60.117 53.0987 59.9943C54.9803 59.9348 56.3616 58.8021 56.2163 56.7007C55.9514 52.9256 53.1465 49.6988 52.8522 45.433C52.5248 40.6208 55.9367 38.855 59.7606 38.0649C59.8378 38.0884 59.9592 38.0649 59.9905 38.0397C60.0162 38.0217 59.9923 38 59.8875 38H59.8783V38.0018Z" fill="#E8952F"/>
</svg>
